<?xml version="1.0" standalone="no"?>
<!DOCTYPE svg PUBLIC "-//W3C//DTD SVG 20010904//EN"
 "http://www.w3.org/TR/2001/REC-SVG-20010904/DTD/svg10.dtd">
<svg version="1.0" xmlns="http://www.w3.org/2000/svg"
 width="512.000000pt" height="49.000000pt" viewBox="0 0 512.000000 49.000000"
 preserveAspectRatio="xMidYMid meet">

<g transform="translate(0.000000,49.000000) scale(0.100000,-0.100000)"
fill="#000000" stroke="none">
<path d="M72 470 c-63 -28 -72 -59 -72 -230 0 -166 10 -203 64 -225 48 -20 94
-19 139 4 29 15 37 16 37 5 0 -10 12 -14 40 -14 l40 0 0 130 0 130 -85 0 -85
0 0 -35 c0 -34 1 -35 41 -35 l42 0 -7 -47 c-10 -76 -70 -109 -116 -63 -18 18
-20 33 -20 153 0 157 8 177 69 177 43 0 58 -13 67 -58 6 -30 9 -32 50 -32 40
0 44 2 44 25 0 14 -7 41 -15 61 -28 67 -145 94 -233 54z"/>
<path d="M2969 475 c-62 -27 -69 -52 -69 -234 l0 -161 28 -30 c32 -36 96 -54
157 -44 105 17 125 56 124 242 0 140 -11 185 -50 215 -36 26 -141 33 -190 12z
m135 -77 c13 -18 16 -51 16 -155 0 -120 -2 -135 -20 -153 -22 -22 -60 -26 -91
-10 -17 10 -19 23 -19 163 0 106 4 157 12 165 21 21 85 15 102 -10z"/>
<path d="M3830 483 c-75 -12 -110 -49 -110 -117 0 -57 19 -83 102 -137 43 -29
83 -60 88 -70 24 -45 0 -89 -49 -89 -35 0 -48 15 -53 60 -3 34 -4 35 -48 35
l-45 0 3 -45 c4 -62 28 -92 87 -107 67 -17 131 -6 169 28 29 25 31 32 31 92 0
77 -6 86 -111 154 -76 50 -93 77 -74 113 7 14 21 20 43 20 40 0 57 -15 57 -52
0 -27 2 -28 46 -28 l47 0 -6 45 c-6 57 -26 80 -82 94 -45 11 -51 11 -95 4z"/>
<path d="M410 245 l0 -235 135 0 135 0 0 35 0 35 -90 0 -90 0 0 70 0 69 83 3
82 3 3 33 3 32 -85 0 -86 0 0 60 0 60 90 0 90 0 0 35 0 35 -135 0 -135 0 0
-235z"/>
<path d="M770 245 l0 -235 45 0 45 0 2 177 3 178 60 -175 60 -175 58 -3 57 -3
0 236 0 235 -45 0 -45 0 -2 -172 -3 -173 -60 173 -59 172 -58 0 -58 0 0 -235z"/>
<path d="M1160 445 l0 -35 60 0 60 0 0 -200 0 -200 45 0 45 0 0 200 0 200 60
0 60 0 0 35 0 35 -165 0 -165 0 0 -35z"/>
<path d="M1540 245 l0 -235 140 0 140 0 0 35 0 35 -90 0 -90 0 0 200 0 200
-50 0 -50 0 0 -235z"/>
<path d="M1880 245 l0 -235 135 0 135 0 0 35 0 35 -90 0 -90 0 0 70 0 69 83 3
82 3 3 33 3 32 -85 0 -86 0 0 60 0 60 90 0 90 0 0 35 0 35 -135 0 -135 0 0
-235z"/>
<path d="M2390 245 l0 -235 45 0 45 0 2 172 3 173 28 -135 c47 -225 42 -212
85 -208 l37 3 35 160 35 160 5 -160 5 -160 45 0 45 0 3 233 2 232 -68 0 -69 0
-32 -152 c-47 -222 -44 -217 -70 -92 -12 60 -29 139 -37 177 l-16 67 -64 0
-64 0 0 -235z"/>
<path d="M3300 245 l0 -235 45 0 45 0 2 177 3 178 61 -175 60 -175 57 -3 57
-3 0 236 0 235 -45 0 -45 0 -2 -172 -3 -173 -59 173 -60 172 -58 0 -58 0 0
-235z"/>
<path d="M4060 445 l0 -35 55 0 55 0 0 -200 0 -200 50 0 50 0 0 200 0 200 55
0 55 0 0 35 0 35 -160 0 -160 0 0 -35z"/>
<path d="M4440 245 l0 -235 140 0 140 0 0 35 0 35 -95 0 -95 0 0 70 0 70 85 0
85 0 0 35 0 35 -85 0 -85 0 0 60 0 60 95 0 95 0 0 35 0 35 -140 0 -140 0 0
-235z"/>
<path d="M4800 245 l0 -235 45 0 44 0 3 103 3 102 41 3 c61 4 74 -13 74 -103
0 -101 2 -105 61 -105 46 0 49 1 39 19 -5 11 -10 53 -10 93 0 76 -16 118 -46
118 -8 0 -14 5 -14 10 0 6 5 10 10 10 6 0 22 11 35 25 19 18 25 35 25 67 0
100 -45 128 -202 128 l-108 0 0 -235z m204 149 c18 -18 21 -56 6 -85 -9 -15
-22 -19 -65 -19 l-55 0 0 60 0 60 49 0 c32 0 55 -6 65 -16z"/>
</g>
</svg>
