<svg width="707" height="707" viewBox="0 0 707 707" fill="none" xmlns="http://www.w3.org/2000/svg">
<path d="M517.112 384.149C502.887 465.694 472.219 536.391 434.159 584.773C396.085 633.174 350.705 659.144 307.04 651.527C263.374 643.91 229.467 604.11 210.029 545.677C190.598 487.266 185.677 410.361 199.901 328.816C214.126 247.27 244.794 176.574 282.854 128.191C320.928 79.7901 366.308 53.8205 409.973 61.4374C453.639 69.0542 487.546 108.854 506.984 167.287C526.415 225.699 531.336 302.603 517.112 384.149Z" stroke="black"/>
<path d="M313.907 204.128C393.866 182.704 470.755 180.198 530.421 193.445C590.113 206.697 632.425 235.673 643.522 277.089C654.619 318.504 632.465 364.754 587.395 406.077C542.346 447.382 474.506 483.657 394.547 505.081C314.589 526.506 237.7 529.011 178.034 515.765C118.341 502.513 76.0296 473.536 64.9325 432.121C53.8353 390.706 75.99 344.456 121.059 303.133C166.108 261.828 233.949 225.553 313.907 204.128Z" stroke="black"/>
<path d="M409.547 206.129C489.506 227.554 557.346 263.828 602.395 305.133C647.464 346.457 669.619 392.706 658.522 434.122C647.425 475.537 605.113 504.513 545.421 517.765C485.755 531.012 408.866 528.506 328.907 507.082C248.949 485.657 181.108 449.382 136.059 408.077C90.9899 366.754 68.8352 320.504 79.9324 279.089C91.0296 237.674 133.341 208.698 193.034 195.445C252.7 182.199 329.589 184.704 409.547 206.129Z" stroke="black"/>
<path d="M457.844 457.906C389.41 526.339 315.747 576.552 251.986 602.425C220.105 615.362 190.724 622.204 165.723 622.212C140.726 622.22 120.146 615.398 105.797 601.049C91.4476 586.699 84.6253 566.12 84.6333 541.122C84.6414 516.122 91.4834 486.74 104.42 454.859C130.293 391.099 180.506 317.435 248.94 249.002C317.373 180.568 391.037 130.355 454.797 104.482C486.678 91.5453 516.06 84.7033 541.06 84.6952C566.058 84.6871 586.637 91.5095 600.987 105.859C615.336 120.208 622.158 140.787 622.15 165.785C622.142 190.786 615.3 220.167 602.363 252.048C576.49 315.809 526.277 389.472 457.844 457.906Z" stroke="black"/>
</svg>
